# xmcd CD database file generated by OrangeCD 5.2
#
# Track frame offsets:
#	150
#	13545
#	27535
#	41430
#	55590
#	71155
#	80033
#	95872
#	108543
#	125398
#	135255
#	146655
#	160493
#
# Disc length: 2327 seconds
#
# Revision: 4
# Processed by: cddbd v1.5.1PL0 Copyright (c) Steve Scherf et al.
# Submitted via: OrangeCD 5.2
#
DISCID=b609150d
DTITLE=Roger Wallace - Hillbilly Heights
DYEAR=1999
DGENRE=Country
TTITLE0=Wishful Drinking
TTITLE1=Nobody Loving Me
TTITLE2=The Runaround
TTITLE3=Don't Nobody Love Me (Like My Baby)
TTITLE4=Crazy Love
TTITLE5=Moonlight Never Shines On A Loner
TTITLE6=Your Time's Coming
TTITLE7=Wine By WIne
TTITLE8=My Finer Moments
TTITLE9=Hang On, Sally
TTITLE10=That's What I'm Gonna Do
TTITLE11=I Don't Feel At Home
TTITLE12=I've Had Enough
EXTD=YEAR: 1999 ID3G: 2
EXTT0=
EXTT1=
EXTT2=
EXTT3=
EXTT4=
EXTT5=
EXTT6=
EXTT7=
EXTT8=
EXTT9=
EXTT10=
EXTT11=
EXTT12=
PLAYORDER=
